<svg version="1.1" viewBox="0.0 0.0 960.0 540.0" fill="none" stroke="none" stroke-linecap="square" stroke-miterlimit="10" xmlns:xlink="http://www.w3.org/1999/xlink" xmlns="http://www.w3.org/2000/svg"><clipPath id="g3efbca820d4_0_66.0"><path d="m0 0l960.0 0l0 540.0l-960.0 0l0 -540.0z" clip-rule="nonzero"/></clipPath><g clip-path="url(#g3efbca820d4_0_66.0)"><path fill="#000000" fill-opacity="0.0" d="m0 0l960.0 0l0 540.0l-960.0 0z" fill-rule="evenodd"/><path fill="#000000" fill-opacity="0.0" d="m-93.87401 235.6693l1147.7166 0l0 68.66142l-1147.7166 0z" fill-rule="evenodd"/><path fill="#ffffff" d="m81.45476 315.88l0 -89.59375l69.25 0l0 16.125l-50.5625 0l0 21.109375l33.53125 0l0 15.625l-33.53125 0l0 36.734375l-18.6875 0zm81.79202 0l0 -89.59375l18.6875 0l0 89.59375l-18.6875 0zm34.81598 0l0 -89.59375l43.78125 0q9.078125 0 16.04686 3.515625q6.984375 3.515625 10.953125 9.796875q3.96875 6.265625 3.96875 14.453125q0 8.578125 -4.796875 15.109375q-4.796875 6.53125 -12.60936 9.734375l19.718735 36.984375l-20.73436 0l-17.546875 -34.296875l-20.09375 0l0 34.296875l-18.6875 0zm18.6875 -49.53125l23.421875 0q6.28125 0 10.046875 -3.328125q3.78125 -3.328125 3.78125 -8.703125q0 -5.375 -3.78125 -8.703125q-3.765625 -3.328125 -10.046875 -3.328125l-23.421875 0l0 24.0625zm101.12053 50.8125q-10.875 0 -21.25 -4.03125q-10.359375 -4.03125 -18.421875 -11.453125l10.625 -13.3125q7.921875 6.78125 15.09375 9.921875q7.171875 3.125 15.234375 3.125q5.625 0 9.71875 -1.34375q4.109375 -1.34375 6.34375 -3.890625q2.234375 -2.5625 2.234375 -6.03125q0 -4.609375 -3.328125 -7.09375q-3.328125 -2.5 -11.390625 -3.90625l-17.78125 -2.953125q-11.390625 -2.046875 -17.34375 -8.1875q-5.953125 -6.140625 -5.953125 -15.875q0 -8.3125 4.28125 -14.453125q4.296875 -6.15625 12.15625 -9.40625q7.875 -3.265625 18.765625 -3.265625q9.84375 0 19.703125 3.328125q9.859375 3.328125 17.28125 9.203125l-9.984375 13.828125q-14.078125 -10.75 -28.15625 -10.75q-5.125 0 -8.84375 1.28125q-3.703125 1.28125 -5.6875 3.53125q-1.984375 2.234375 -1.984375 5.296875q0 4.09375 3.0 6.34375q3.015625 2.234375 9.796875 3.390625l16.90625 2.8125q13.4375 2.171875 20.15625 8.515625q6.71875 6.328125 6.71875 16.703125q0 8.703125 -4.671875 15.171875q-4.671875 6.453125 -13.1875 9.984375q-8.515625 3.515625 -20.03125 3.515625zm71.30411 -1.28125l0 -73.09375l-30.09375 0l0 -16.5l78.859406 0l0 16.5l-30.078156 0l0 73.09375l-18.6875 0zm110.58389 0l0 -89.59375l18.6875 0l0 73.078125l48.890625 0l0 16.515625l-67.578125 0zm80.38403 0l0 -89.59375l18.6875 0l0 89.59375l-18.6875 0zm78.84717 1.40625q-9.984375 0 -18.5625 -3.515625q-8.578125 -3.515625 -15.109375 -9.84375q-6.515625 -6.34375 -10.171875 -14.734375q-3.640625 -8.390625 -3.640625 -18.109375q0 -9.734375 3.640625 -18.109375q3.65625 -8.390625 10.046875 -14.71875q6.40625 -6.34375 15.046875 -9.859375q8.640625 -3.53125 18.5 -3.53125q11.125 0 20.984375 4.421875q9.859375 4.421875 16.265625 12.359375l-12.9375 11.890625q-4.609375 -5.75 -10.875 -8.6875q-6.265625 -2.953125 -13.4375 -2.953125q-6.015625 0 -11.140625 2.25q-5.125 2.234375 -8.96875 6.140625q-3.828125 3.890625 -5.9375 9.203125q-2.109375 5.3125 -2.109375 11.59375q0 6.265625 2.171875 11.640625q2.171875 5.375 6.078125 9.28125q3.90625 3.90625 9.15625 6.15625q5.25 2.234375 11.265625 2.234375q6.390625 0 11.5 -2.4375q5.125 -2.4375 8.640625 -6.65625q3.53125 -4.21875 4.6875 -9.59375l-26.5 0l0 -16.125l46.34375 0l0 5.625q0 9.984375 -3.40625 18.375q-3.390625 8.375 -9.40625 14.59375q-6.015625 6.203125 -14.203125 9.65625q-8.1875 3.453125 -17.921875 3.453125zm57.60083 -1.40625l0 -89.59375l18.6875 0l0 35.96875l41.09375 0l0 -35.96875l18.5625 0l0 89.59375l-18.5625 0l0 -36.609375l-41.09375 0l0 36.609375l-18.6875 0zm118.920044 0l0 -73.09375l-30.09375 0l0 -16.5l78.859375 0l0 16.5l-30.078125 0l0 73.09375l-18.6875 0z" fill-rule="nonzero"/></g></svg>