<svg xmlns="http://www.w3.org/2000/svg" viewBox="0 0 720 330" width="720" height="330" font-family="DM Sans, system-ui, -apple-system, Helvetica, Arial, sans-serif">
<line x1="56" x2="704" y1="266.0" y2="266.0" stroke="#fff" stroke-opacity="0.12"/>
<text x="48" y="270.0" text-anchor="end" font-size="11" fill="#a6a6a6">0</text>
<line x1="56" x2="704" y1="217.6" y2="217.6" stroke="#fff" stroke-opacity="0.12"/>
<text x="48" y="221.6" text-anchor="end" font-size="11" fill="#a6a6a6">25k</text>
<line x1="56" x2="704" y1="169.2" y2="169.2" stroke="#fff" stroke-opacity="0.12"/>
<text x="48" y="173.2" text-anchor="end" font-size="11" fill="#a6a6a6">50k</text>
<line x1="56" x2="704" y1="120.8" y2="120.8" stroke="#fff" stroke-opacity="0.12"/>
<text x="48" y="124.8" text-anchor="end" font-size="11" fill="#a6a6a6">75k</text>
<line x1="56" x2="704" y1="72.4" y2="72.4" stroke="#fff" stroke-opacity="0.12"/>
<text x="48" y="76.4" text-anchor="end" font-size="11" fill="#a6a6a6">100k</text>
<line x1="56" x2="704" y1="24.0" y2="24.0" stroke="#fff" stroke-opacity="0.12"/>
<text x="48" y="28.0" text-anchor="end" font-size="11" fill="#a6a6a6">125k</text>
<rect x="79.8" y="43.5" width="60.5" height="222.5" fill="#6b6b6b"/>
<text x="110.0" y="36.5" text-anchor="middle" font-size="13" font-weight="500" fill="#cecece">115k</text>
<text x="110.0" y="286" text-anchor="middle" font-size="13" font-weight="500" fill="#cecece">Cirkunov</text>
<text x="110.0" y="303" text-anchor="middle" font-size="11" fill="#a6a6a6">Mar 2019</text>
<rect x="187.8" y="121.3" width="60.5" height="144.7" fill="#6b6b6b"/>
<text x="218.0" y="114.3" text-anchor="middle" font-size="13" font-weight="500" fill="#cecece">75k</text>
<text x="218.0" y="286" text-anchor="middle" font-size="13" font-weight="500" fill="#cecece">Craig</text>
<text x="218.0" y="303" text-anchor="middle" font-size="11" fill="#a6a6a6">Jan 2023</text>
<rect x="295.8" y="132.7" width="60.5" height="133.3" fill="#6b6b6b"/>
<text x="326.0" y="125.7" text-anchor="middle" font-size="13" font-weight="500" fill="#cecece">69k</text>
<text x="326.0" y="286" text-anchor="middle" font-size="13" font-weight="500" fill="#cecece">Smith</text>
<text x="326.0" y="303" text-anchor="middle" font-size="11" fill="#a6a6a6">May 2023</text>
<rect x="403.8" y="98.7" width="60.5" height="167.3" fill="#6b6b6b"/>
<text x="434.0" y="91.7" text-anchor="middle" font-size="13" font-weight="500" fill="#cecece">86k</text>
<text x="434.0" y="286" text-anchor="middle" font-size="13" font-weight="500" fill="#cecece">Zhang</text>
<text x="434.0" y="303" text-anchor="middle" font-size="11" fill="#a6a6a6">Aug 2025</text>
<rect x="511.8" y="208.0" width="60.5" height="58.0" fill="none" stroke="#cecece" stroke-width="1.5" stroke-dasharray="4 3"/>
<text x="542.0" y="201.0" text-anchor="middle" font-size="13" font-weight="500" fill="#cecece">30k</text>
<text x="542.0" y="286" text-anchor="middle" font-size="13" font-weight="500" fill="#cecece">Reyes (loss)</text>
<text x="542.0" y="303" text-anchor="middle" font-size="11" fill="#a6a6a6">Apr 2026</text>
<rect x="619.8" y="195.9" width="60.5" height="70.1" fill="#fff"/>
<text x="650.0" y="188.9" text-anchor="middle" font-size="13" font-weight="700" fill="#fff">36k</text>
<text x="650.0" y="286" text-anchor="middle" font-size="13" font-weight="700" fill="#fff">Parkin</text>
<text x="650.0" y="303" text-anchor="middle" font-size="11" fill="#a6a6a6">Oct 2026</text>
<line x1="56" x2="704" y1="266.0" y2="266.0" stroke="#fff" stroke-opacity="0.4"/>
</svg>