<svg xmlns="http://www.w3.org/2000/svg" viewBox="0 0 720 360" role="img" aria-label="Line chart: UFC star premium by year. 1.34x in 2021, 1.24x in 2022, 1.34x in 2023, 1.32x in 2024, 1.30x in 2025, and 1.18x in 2026 so far, through 19 September. The 2027 call is below 1.20x." font-family="DM Sans, Helvetica, Arial, sans-serif"><rect width="720" height="360" fill="#000"/><text x="70" y="26" fill="#fff" font-size="16" font-weight="700">Star premium by year</text><line x1="70" x2="680" y1="300.0" y2="300.0" stroke="#fff" stroke-opacity=".12"/><text x="62" y="304.0" fill="#a6a6a6" font-size="12" text-anchor="end">1.00x</text><line x1="70" x2="680" y1="204.0" y2="204.0" stroke="#fff" stroke-opacity=".12"/><text x="62" y="208.0" fill="#a6a6a6" font-size="12" text-anchor="end">1.20x</text><line x1="70" x2="680" y1="108.0" y2="108.0" stroke="#fff" stroke-opacity=".12"/><text x="62" y="112.0" fill="#a6a6a6" font-size="12" text-anchor="end">1.40x</text><line x1="70" x2="680" y1="204.0" y2="204.0" stroke="#fff" stroke-opacity=".55" stroke-dasharray="4 4"/><rect x="634" y="54" width="52" height="246" fill="#fff" fill-opacity=".06"/><text x="660" y="194.0" fill="#fff" font-size="12" font-weight="700" text-anchor="middle">Call: below 1.20x</text><text x="660" y="322" fill="#fff" font-size="12" text-anchor="middle">2027</text><polyline fill="none" stroke="#fff" stroke-width="2.5" points="90.0,136.8 185.0,184.8 280.0,136.8 375.0,146.4 470.0,156.0"/><line x1="470" y1="155.99999999999997" x2="565" y2="213.60000000000002" stroke="#fff" stroke-width="2.5" stroke-dasharray="5 4"/><circle cx="90" cy="136.8" r="4" fill="#fff"/><text x="90" y="124.8" fill="#fff" font-size="12" text-anchor="middle">1.34x</text><text x="90" y="322" fill="#a6a6a6" font-size="12" text-anchor="middle">2021</text><circle cx="185" cy="184.8" r="4" fill="#fff"/><text x="185" y="172.8" fill="#fff" font-size="12" text-anchor="middle">1.24x</text><text x="185" y="322" fill="#a6a6a6" font-size="12" text-anchor="middle">2022</text><circle cx="280" cy="136.8" r="4" fill="#fff"/><text x="280" y="124.8" fill="#fff" font-size="12" text-anchor="middle">1.34x</text><text x="280" y="322" fill="#a6a6a6" font-size="12" text-anchor="middle">2023</text><circle cx="375" cy="146.4" r="4" fill="#fff"/><text x="375" y="134.4" fill="#fff" font-size="12" text-anchor="middle">1.32x</text><text x="375" y="322" fill="#a6a6a6" font-size="12" text-anchor="middle">2024</text><circle cx="470" cy="156.0" r="4" fill="#fff"/><text x="470" y="144.0" fill="#fff" font-size="12" text-anchor="middle">1.30x</text><text x="470" y="322" fill="#a6a6a6" font-size="12" text-anchor="middle">2025</text><circle cx="565" cy="213.6" r="4" fill="#000" stroke="#fff" stroke-width="2"/><text x="575" y="233.6" fill="#fff" font-size="12" text-anchor="start">1.18x*</text><text x="565" y="322" fill="#a6a6a6" font-size="12" text-anchor="middle">2026*</text><text x="70" y="350" fill="#a6a6a6" font-size="11">* 2026 is partial, 1 Jan to 19 Sep (1.18x vs 1.25x for the same months in 2021–25). Source: First Light Observatory.</text></svg>